{
  "accessors": [
    {
      "bufferView": 2,
      "componentType": 5126,
      "count": 1929,
      "max": [
        0.18693900108337402,
        1.0,
        0.8535749912261963
      ],
      "min": [
        -0.18693900108337402,
        -1.0,
        -0.8535749912261963
      ],
      "type": "VEC3"
    },
    {
      "bufferView": 2,
      "byteOffset": 23148,
      "componentType": 5126,
      "count": 1929,
      "max": [
        0.999792754650116,
        1.0,
        1.0
      ],
      "min": [
        -0.999792754650116,
        -1.0,
        -1.0
      ],
      "type": "VEC3"
    },
    {
      "bufferView": 3,
      "componentType": 5126,
      "count": 1929,
      "max": [
        0.999576985836029,
        0.9997149705886841,
        0.9999920129776001,
        1.0
      ],
      "min": [
        -0.993598997592926,
        -1.0,
        -0.9999930262565613,
        -1.0
      ],
      "type": "VEC4"
    },
    {
      "bufferView": 1,
      "componentType": 5126,
      "count": 1929,
      "max": [
        0.9896029829978943,
        0.9747509956359863
      ],
      "min": [
        0.0019776499830186367,
        0.006296520121395588
      ],
      "type": "VEC2"
    },
    {
      "bufferView": 0,
      "componentType": 5125,
      "count": 5448,
      "type": "SCALAR"
    }
  ],
  "asset": {
    "extras": {
      "author": "Evan (https://sketchfab.com/Evanz)",
      "license": "CC-BY-4.0 (http://creativecommons.org/licenses/by/4.0/)",
      "source": "https://sketchfab.com/3d-models/the-ring-1-carat-378f6df2c4f444399b83db2037258470",
      "title": "The Ring: 1 carat"
    },
    "generator": "Sketchfab-12.68.0",
    "version": "2.0"
  },
  "bufferViews": [
    {
      "buffer": 0,
      "byteLength": 21792,
      "name": "floatBufferViews",
      "target": 34963
    },
    {
      "buffer": 0,
      "byteLength": 15432,
      "byteOffset": 21792,
      "byteStride": 8,
      "name": "floatBufferViews",
      "target": 34962
    },
    {
      "buffer": 0,
      "byteLength": 46296,
      "byteOffset": 37224,
      "byteStride": 12,
      "name": "floatBufferViews",
      "target": 34962
    },
    {
      "buffer": 0,
      "byteLength": 30864,
      "byteOffset": 83520,
      "byteStride": 16,
      "name": "floatBufferViews",
      "target": 34962
    }
  ],
  "buffers": [
    {
      "byteLength": 114384,
      "uri": "scene.bin"
    }
  ],
  "images": [
    {
      "uri": "textures/Thering_baseColor.png"
    },
    {
      "uri": "textures/Thering_metallicRoughness.png"
    },
    {
      "uri": "textures/Thering_emissive.jpeg"
    },
    {
      "uri": "textures/Thering_normal.jpeg"
    }
  ],
  "materials": [
    {
      "alphaMode": "BLEND",
      "doubleSided": true,
      "emissiveFactor": [
        0.20007621951219515,
        0.20007621951219515,
        0.20007621951219515
      ],
      "emissiveTexture": {
        "index": 2
      },
      "name": "Thering",
      "normalTexture": {
        "index": 3,
        "scale": 0.6055556003402613
      },
      "occlusionTexture": {
        "index": 1
      },
      "pbrMetallicRoughness": {
        "baseColorTexture": {
          "index": 0
        },
        "metallicRoughnessTexture": {
          "index": 1
        }
      }
    }
  ],
  "meshes": [
    {
      "name": "defaultMaterial",
      "primitives": [
        {
          "attributes": {
            "NORMAL": 1,
            "POSITION": 0,
            "TANGENT": 2,
            "TEXCOORD_0": 3
          },
          "indices": 4,
          "material": 0,
          "mode": 4
        }
      ]
    }
  ],
  "nodes": [
    {
      "children": [
        1
      ],
      "matrix": [
        1.0,
        0.0,
        0.0,
        0.0,
        0.0,
        2.220446049250313e-16,
        -1.0,
        0.0,
        0.0,
        1.0,
        2.220446049250313e-16,
        0.0,
        0.0,
        0.0,
        0.0,
        1.0
      ],
      "name": "Sketchfab_model"
    },
    {
      "children": [
        2
      ],
      "matrix": [
        1.0,
        0.0,
        0.0,
        0.0,
        0.0,
        -4.371139006309477e-08,
        0.999999999999999,
        0.0,
        0.0,
        -0.999999999999999,
        -4.371139006309477e-08,
        0.0,
        0.0,
        0.0,
        0.0,
        1.0
      ],
      "name": "Collada visual scene group"
    },
    {
      "children": [
        3
      ],
      "name": "Thering"
    },
    {
      "mesh": 0,
      "name": "defaultMaterial"
    }
  ],
  "samplers": [
    {
      "magFilter": 9729,
      "minFilter": 9987,
      "wrapS": 10497,
      "wrapT": 10497
    }
  ],
  "scene": 0,
  "scenes": [
    {
      "name": "Sketchfab_Scene",
      "nodes": [
        0
      ]
    }
  ],
  "textures": [
    {
      "sampler": 0,
      "source": 0
    },
    {
      "sampler": 0,
      "source": 1
    },
    {
      "sampler": 0,
      "source": 2
    },
    {
      "sampler": 0,
      "source": 3
    }
  ]
}
