{
	"asset":{
		"generator":"Khronos glTF Blender I/O v3.6.27",
		"version":"2.0"
	},
	"scene":0,
	"scenes":[
		{
			"name":"Scene",
			"nodes":[
				6,
				7
			]
		}
	],
	"nodes":[
		{
			"name":"BezierCurve.001_2"
		},
		{
			"name":"Cylinder_3"
		},
		{
			"mesh":0,
			"name":"Object_4"
		},
		{
			"children":[
				2
			],
			"name":"Rose_1",
			"translation":[
				0.03238653391599655,
				1.012036919593811,
				0.0002928305766545236
			]
		},
		{
			"children":[
				0,
				1,
				3
			],
			"name":"GLTF_SceneRootNode",
			"rotation":[
				0.70710688829422,
				0,
				0,
				0.7071066498756409
			]
		},
		{
			"children":[
				4
			],
			"name":"root"
		},
		{
			"children":[
				5
			],
			"name":"Sketchfab_model",
			"rotation":[
				-0.70710688829422,
				0,
				0,
				0.7071066498756409
			],
			"scale":[
				0.16674864292144775,
				0.16674865782260895,
				0.16674865782260895
			]
		},
		{
			"name":"Sketchfab_model.001",
			"scale":[
				0.16674864292144775,
				0.16674865782260895,
				0.16674865782260895
			],
			"translation":[
				-4.369762420654297,
				0,
				-3.1940460205078125
			]
		}
	],
	"animations":[
		{
			"channels":[
				{
					"sampler":0,
					"target":{
						"node":3,
						"path":"rotation"
					}
				}
			],
			"name":"Action",
			"samplers":[
				{
					"input":4,
					"interpolation":"LINEAR",
					"output":5
				}
			]
		},
		{
			"channels":[
				{
					"sampler":0,
					"target":{
						"node":3,
						"path":"rotation"
					}
				}
			],
			"name":"RoseAction",
			"samplers":[
				{
					"input":4,
					"interpolation":"LINEAR",
					"output":6
				}
			]
		}
	],
	"materials":[
		{
			"alphaCutoff":0.5,
			"alphaMode":"MASK",
			"doubleSided":true,
			"name":"Rose",
			"pbrMetallicRoughness":{
				"baseColorTexture":{
					"index":0
				},
				"metallicFactor":0,
				"roughnessFactor":0.9380567073822021
			}
		}
	],
	"meshes":[
		{
			"name":"Object_0",
			"primitives":[
				{
					"attributes":{
						"POSITION":0,
						"NORMAL":1,
						"TEXCOORD_0":2
					},
					"indices":3,
					"material":0
				}
			]
		}
	],
	"textures":[
		{
			"sampler":0,
			"source":0
		}
	],
	"images":[
		{
			"mimeType":"image/png",
			"name":"Rose_baseColor",
			"uri":"Rose_baseColor.png"
		}
	],
	"accessors":[
		{
			"bufferView":0,
			"componentType":5126,
			"count":1536,
			"max":[
				0.23391717672348022,
				0.8396844863891602,
				0.45294004678726196
			],
			"min":[
				-0.16499076783657074,
				-0.7218341827392578,
				-0.23881840705871582
			],
			"type":"VEC3"
		},
		{
			"bufferView":1,
			"componentType":5126,
			"count":1536,
			"type":"VEC3"
		},
		{
			"bufferView":2,
			"componentType":5126,
			"count":1536,
			"type":"VEC2"
		},
		{
			"bufferView":3,
			"componentType":5123,
			"count":6108,
			"type":"SCALAR"
		},
		{
			"bufferView":4,
			"componentType":5126,
			"count":250,
			"max":[
				10.416666666666666
			],
			"min":[
				0.041666666666666664
			],
			"type":"SCALAR"
		},
		{
			"bufferView":5,
			"componentType":5126,
			"count":250,
			"type":"VEC4"
		},
		{
			"bufferView":6,
			"componentType":5126,
			"count":250,
			"type":"VEC4"
		}
	],
	"bufferViews":[
		{
			"buffer":0,
			"byteLength":18432,
			"byteOffset":0,
			"target":34962
		},
		{
			"buffer":0,
			"byteLength":18432,
			"byteOffset":18432,
			"target":34962
		},
		{
			"buffer":0,
			"byteLength":12288,
			"byteOffset":36864,
			"target":34962
		},
		{
			"buffer":0,
			"byteLength":12216,
			"byteOffset":49152,
			"target":34963
		},
		{
			"buffer":0,
			"byteLength":1000,
			"byteOffset":61368
		},
		{
			"buffer":0,
			"byteLength":4000,
			"byteOffset":62368
		},
		{
			"buffer":0,
			"byteLength":4000,
			"byteOffset":66368
		}
	],
	"samplers":[
		{
			"magFilter":9729,
			"minFilter":9987
		}
	],
	"buffers":[
		{
			"byteLength":70368,
			"uri":"rose.bin"
		}
	]
}
